<svg width="956" height="956" viewBox="0 0 956 956" fill="none" xmlns="http://www.w3.org/2000/svg">
<path d="M709.76 0H246.24C110.246 0 0 110.246 0 246.24V709.76C0 845.754 110.246 956 246.24 956H709.76C845.755 956 956 845.754 956 709.76V246.24C956 110.246 845.755 0 709.76 0Z" fill="black"/>
<path d="M224.023 330.095C224.023 312.536 233.152 302.778 250.719 302.778H276.123C293.713 302.778 302.819 312.536 302.819 330.095V350.254C302.819 357.411 301.505 365.213 301.505 365.213H302.819C319.094 332.695 359.484 295 411.584 295C463.684 295 494.944 318.404 508.615 363.257H509.906C527.495 328.806 571.135 295 623.235 295C692.279 295 732 334.007 732 421.135V633.683C732 651.887 722.225 661 704.636 661H676.626C658.391 661 649.285 651.887 649.285 633.683V436.738C649.285 399.019 642.116 370.414 603.686 370.414C547.667 370.414 519.012 427.624 519.012 485.479V575.99C519.012 594.193 509.883 603.306 492.316 603.306H463.661C446.071 603.306 436.297 594.193 436.297 575.99V436.715C436.297 400.952 431.087 370.391 392.012 370.391C333.387 370.391 306.046 430.202 306.046 485.456V518.296C306.046 536.499 296.917 545.612 279.351 545.612H250.696C233.106 545.612 224 536.499 224 518.296V330.072L224.023 330.095Z" fill="white"/>
</svg>
